<svg width="66" height="66" viewBox="0 0 66 66" fill="none" xmlns="http://www.w3.org/2000/svg">
<path d="M32.9466 -6.35885e-05C51.1186 -6.16595e-05 65.8931 14.7744 65.8931 32.9465C65.8931 51.1185 51.1186 65.893 32.9466 65.893C14.7745 65.893 -1.3251e-05 51.1185 -1.19427e-05 32.9465C-1.06343e-05 14.7744 14.7745 -6.55175e-05 32.9466 -6.35885e-05ZM32.9466 61.6218C48.7501 61.6218 61.6218 48.7499 61.6218 32.9465C61.6218 17.143 48.7501 4.27117 32.9466 4.27117C17.1431 4.27117 4.27122 17.143 4.27122 32.9465C4.27122 48.7499 17.1431 61.6218 32.9466 61.6218Z" fill="#EE2B7C"/>
</svg>
