<svg width="72" height="72" viewBox="0 0 72 72" fill="none" xmlns="http://www.w3.org/2000/svg">
<path d="M35.9418 -6.41773e-05C55.7658 -6.24442e-05 71.8834 16.1176 71.8834 35.9416C71.8834 55.7657 55.7658 71.8833 35.9417 71.8833C16.1177 71.8833 1.40905e-06 55.7657 3.14212e-06 35.9416C4.8752e-06 16.1176 16.1177 -6.59103e-05 35.9418 -6.41773e-05ZM35.9417 67.2238C53.1819 67.2238 67.2238 53.1818 67.2238 35.9416C67.2238 18.7015 53.1819 4.65946 35.9418 4.65946C18.7016 4.65946 4.65953 18.7015 4.65953 35.9416C4.65952 53.1818 18.7016 67.2238 35.9417 67.2238Z" fill="#EE2B7C"/>
</svg>
