<svg width="190" height="161" viewBox="0 0 190 161" fill="none" xmlns="http://www.w3.org/2000/svg">
<path fill-rule="evenodd" clip-rule="evenodd" d="M166.778 143.193C152.266 157.205 129.813 155.099 109.979 158.187C96.0059 160.362 82.3076 162.028 68.5679 158.482C55.4588 155.099 43.8965 148.111 34.0902 138.605C23.7599 128.59 16.2471 116.609 11.339 103.003C5.15244 85.852 -2.87575 67.8208 2.27406 50.4023C7.89446 31.3921 22.3514 15.5754 39.8061 6.71646C57.528 -2.2781 77.902 0.42441 97.7206 1.95946C120.397 3.71585 145.42 1.27613 162.841 16.2461C180.933 31.7928 189.072 57.1073 189.816 81.0972C190.521 103.822 182.932 127.595 166.778 143.193Z" fill="url(#paint0_linear_20_15)"/>
<defs>
<linearGradient id="paint0_linear_20_15" x1="221.621" y1="48.436" x2="3.0189" y2="166.186" gradientUnits="userSpaceOnUse">
<stop stop-color="#2F3386"/>
<stop offset="1" stop-color="#474CBE"/>
</linearGradient>
</defs>
</svg>
