<svg width="232" height="223" viewBox="0 0 232 223" fill="none" xmlns="http://www.w3.org/2000/svg">
<path fill-rule="evenodd" clip-rule="evenodd" d="M183.144 22.6485C204.05 37.4635 226.193 55.3599 230.747 80.5935C235.252 105.551 220.065 129.42 206.261 150.728C194.362 169.096 176.808 181.645 158.017 192.858C139.224 204.072 119.718 212.347 98.0483 215.302C70.6717 219.035 37.0264 231.333 17.2785 212.05C-2.66663 192.575 13.9887 158.384 11.3156 130.611C9.10822 107.677 -4.85573 85.3782 2.99989 63.7005C11.0198 41.5695 32.1876 27.4354 52.815 16.0933C72.8336 5.08606 95.0227 -0.579107 117.818 0.567429C141.361 1.75157 163.924 9.02863 183.144 22.6485Z" fill="url(#paint0_linear_136_78)"/>
<defs>
<linearGradient id="paint0_linear_136_78" x1="180.503" y1="18.2754" x2="13.5826" y2="208.882" gradientUnits="userSpaceOnUse">
<stop stop-color="#EE2176"/>
<stop offset="1" stop-color="#E61C70"/>
</linearGradient>
</defs>
</svg>
