<svg width="103" height="106" viewBox="0 0 103 106" fill="none" xmlns="http://www.w3.org/2000/svg">
<path fill-rule="evenodd" clip-rule="evenodd" d="M101.342 74.1151C99.262 81.3274 93.4316 86.7546 88.0454 91.9845C82.5665 97.3045 77.1511 105.194 69.5087 105.025C60.9497 104.836 56.377 93.8151 48.2545 91.1049C42.3361 89.1302 35.8968 92.8716 29.7577 91.7613C22.5064 90.4498 14.6221 89.1461 9.29262 84.058C3.93038 78.9387 1.10621 71.2678 0.554894 63.8814C0.0166201 56.6698 2.72641 49.5138 6.24276 43.197C9.39061 37.5421 15.0956 34.0425 19.6985 29.4912C23.671 25.5633 27.6909 21.947 31.6846 18.0406C36.6993 13.1355 39.9961 6.15699 46.4269 3.34708C53.0811 0.439495 61.1832 -0.448666 67.9531 2.1931C74.7292 4.83727 78.4267 12.0018 83.0304 17.6306C87.1429 22.6589 90.9137 27.8137 93.7037 33.6777C96.5223 39.6015 98.2872 45.811 99.5044 52.255C100.877 59.5206 103.39 67.0135 101.342 74.1151Z" fill="#E3E9FF"/>
</svg>
